<?xml version="1.0" encoding="utf-8"?>
<!-- Generator: Adobe Illustrator 22.1.0, SVG Export Plug-In . SVG Version: 6.00 Build 0)  -->
<svg version="1.1" id="Layer_1" xmlns="http://www.w3.org/2000/svg" xmlns:xlink="http://www.w3.org/1999/xlink" x="0px" y="0px"
	 viewBox="0 0 576 338" enable-background="new 0 0 576 338" xml:space="preserve">
<linearGradient id="SVGID_1_" gradientUnits="userSpaceOnUse" x1="6.9396" y1="299.8741" x2="563.5137" y2="9.2712">
	<stop  offset="0" style="stop-color:#5A4BE3"/>
	<stop  offset="1" style="stop-color:#48B0FB"/>
</linearGradient>
<path fill="url(#SVGID_1_)" d="M95,315.5c0-37.8,30.7-68.5,68.5-68.5s68.5,30.7,68.5,68.5c0,3.6-0.3,7.1-0.8,10.5h149.7
	c-2.5-10.1-3.9-20.6-3.9-31.5C377,223,435,165,506.5,165c20.3,0,39.4,4.7,56.5,12.9V22c0-5.5-4.5-10-10-10H134.3
	c3.7,10.1,5.7,21.1,5.7,32.5c0,52.7-42.8,95.5-95.5,95.5c-11,0-21.6-1.9-31.5-5.3V316c0,5.5,4.5,10,10,10h72.8
	C95.3,322.6,95,319.1,95,315.5z"/>
<linearGradient id="SVGID_2_" gradientUnits="userSpaceOnUse" x1="-76.917" y1="139.2686" x2="479.6571" y2="-151.3342">
	<stop  offset="0" style="stop-color:#5A4BE3"/>
	<stop  offset="1" style="stop-color:#48B0FB"/>
</linearGradient>
<path fill="url(#SVGID_2_)" d="M140,44.5c0-11.4-2-22.4-5.7-32.5H23c-5.5,0-10,4.5-10,10v112.7c9.9,3.4,20.5,5.3,31.5,5.3
	C97.2,140,140,97.2,140,44.5z"/>
<linearGradient id="SVGID_3_" gradientUnits="userSpaceOnUse" x1="-34.5003" y1="30.8147" x2="267.5487" y2="149.5631">
	<stop  offset="0" style="stop-color:#5A4BE3"/>
	<stop  offset="1" style="stop-color:#48B0FB"/>
</linearGradient>
<path fill="url(#SVGID_3_)" d="M140,44.5c0-11.4-2-22.4-5.7-32.5H23c-5.5,0-10,4.5-10,10v112.7c9.9,3.4,20.5,5.3,31.5,5.3
	C97.2,140,140,97.2,140,44.5z"/>
<linearGradient id="SVGID_4_" gradientUnits="userSpaceOnUse" x1="93.4804" y1="465.6205" x2="650.0545" y2="175.0177">
	<stop  offset="0" style="stop-color:#5A4BE3"/>
	<stop  offset="1" style="stop-color:#48B0FB"/>
</linearGradient>
<path fill="url(#SVGID_4_)" d="M377,294.5c0,10.9,1.3,21.4,3.9,31.5H553c5.5,0,10-4.5,10-10V177.9c-17.1-8.3-36.2-12.9-56.5-12.9
	C435,165,377,223,377,294.5z"/>
<linearGradient id="SVGID_5_" gradientUnits="userSpaceOnUse" x1="667.8427" y1="353.027" x2="276.7101" y2="151.2743">
	<stop  offset="0" style="stop-color:#5A4BE3"/>
	<stop  offset="1" style="stop-color:#48B0FB"/>
</linearGradient>
<path fill="url(#SVGID_5_)" d="M377,294.5c0,10.9,1.3,21.4,3.9,31.5H553c5.5,0,10-4.5,10-10V177.9c-17.1-8.3-36.2-12.9-56.5-12.9
	C435,165,377,223,377,294.5z"/>
<linearGradient id="SVGID_6_" gradientUnits="userSpaceOnUse" x1="40.4383" y1="364.0322" x2="597.0124" y2="73.4293">
	<stop  offset="0" style="stop-color:#5A4BE3"/>
	<stop  offset="1" style="stop-color:#48B0FB"/>
</linearGradient>
<path fill="url(#SVGID_6_)" d="M163.5,247c-37.8,0-68.5,30.7-68.5,68.5c0,3.6,0.3,7.1,0.8,10.5h135.4c0.5-3.4,0.8-6.9,0.8-10.5
	C232,277.7,201.3,247,163.5,247z"/>
<linearGradient id="SVGID_7_" gradientUnits="userSpaceOnUse" x1="434.6836" y1="439.545" x2="-219.0075" y2="102.3603">
	<stop  offset="0" style="stop-color:#5A4BE3"/>
	<stop  offset="1" style="stop-color:#48B0FB"/>
</linearGradient>
<path fill="url(#SVGID_7_)" d="M163.5,247c-37.8,0-68.5,30.7-68.5,68.5c0,3.6,0.3,7.1,0.8,10.5h135.4c0.5-3.4,0.8-6.9,0.8-10.5
	C232,277.7,201.3,247,163.5,247z"/>
</svg>
